<svg width="24" height="24" viewBox="0 0 24 24" fill="none" xmlns="http://www.w3.org/2000/svg">
<path fill-rule="evenodd" clip-rule="evenodd" d="M20.6714 2.4H17.6952V1.2C17.6952 0.537258 17.1622 0 16.5047 0C15.8472 0 15.3142 0.537258 15.3142 1.2V2.4H6.98091V1.2C6.98091 0.537258 6.44792 0 5.79043 0C5.13295 0 4.59996 0.537258 4.59996 1.2V2.4H2.81424C1.86186 2.4 1.02853 3.24 1.02853 4.2V22.2C1.02853 23.16 1.86186 24 2.81424 24H20.6714C21.6238 24 22.4571 23.16 22.4571 22.2V4.2C22.4571 3.24 21.6238 2.4 20.6714 2.4ZM3.40948 21.6H20.0761V9.6H3.40948V21.6Z" fill="#5C5F62"/>
</svg>
