<svg width="24" height="24" viewBox="0 0 24 24" fill="none" xmlns="http://www.w3.org/2000/svg">
<g clip-path="url(#clip0_7969_6630)">
<path fill-rule="evenodd" clip-rule="evenodd" d="M1.97139 0C0.977274 0 0.171387 0.805888 0.171387 1.8V6.6C0.171387 7.59411 0.977274 8.4 1.97139 8.4H3.77139V22.2C3.77139 23.1941 4.57727 24 5.57139 24H9.77139C10.4341 24 10.9714 23.4627 10.9714 22.8V22.8C10.9714 22.1373 10.4341 21.6 9.77139 21.6H6.17139V8.4H7.97139C8.9655 8.4 9.77139 7.59411 9.77139 6.6V6H18.1714V6C18.1714 6.66274 18.7086 7.2 19.3714 7.2V7.2C20.0341 7.2 20.5714 6.66274 20.5714 6V5.4C20.5714 4.40589 19.7655 3.6 18.7714 3.6H9.77139V1.8C9.77139 0.805888 8.9655 0 7.97139 0H1.97139ZM2.57139 2.4V6H7.37139V2.4H2.57139Z" fill="#5C5F62"/>
<path fill-rule="evenodd" clip-rule="evenodd" d="M10.9714 9.6C10.3086 9.6 9.77139 10.1373 9.77139 10.8V16.8C9.77139 17.1183 9.89782 17.4235 10.1229 17.6485L16.1229 23.6485C16.5915 24.1172 17.3513 24.1172 17.8199 23.6485L23.8199 17.6485C24.2885 17.1799 24.2885 16.4201 23.8199 15.9515L17.8199 9.95147C17.5949 9.72643 17.2896 9.6 16.9714 9.6H10.9714ZM15.7714 14.4C15.7714 15.0627 15.2341 15.6 14.5714 15.6C13.9086 15.6 13.3714 15.0627 13.3714 14.4C13.3714 13.7373 13.9086 13.2 14.5714 13.2C15.2341 13.2 15.7714 13.7373 15.7714 14.4Z" fill="#5C5F62"/>
</g>
<defs>
<clipPath id="clip0_7969_6630">
<rect width="24" height="24" fill="white"/>
</clipPath>
</defs>
</svg>
