<svg width="24" height="24" viewBox="0 0 24 24" fill="none" xmlns="http://www.w3.org/2000/svg">
<g clip-path="url(#clip0_7969_5993)">
<path d="M14.6665 9.35481C14.3821 9.06905 14.0669 8.81558 13.7267 8.59905C12.6497 7.91021 11.3692 7.60959 10.0976 7.74705C8.82593 7.88451 7.63955 8.45179 6.73516 9.35481L1.64101 14.4468C0.610779 15.5009 0.0379576 16.9178 0.0466209 18.3906C0.0552842 19.8633 0.644735 21.2734 1.6873 22.3154C2.72986 23.3573 4.14158 23.9472 5.61669 23.9573C7.0918 23.9675 8.51152 23.397 9.56833 22.3694L13.7744 18.1701C13.8123 18.1325 13.8422 18.0876 13.8623 18.0382C13.8825 17.9888 13.8924 17.9358 13.8916 17.8825C13.8916 17.7772 13.8497 17.6763 13.7752 17.6019C13.7007 17.5275 13.5996 17.4857 13.4942 17.4857H13.3333C12.4549 17.4877 11.5844 17.3193 10.7703 16.9898C10.6971 16.9591 10.6163 16.951 10.5384 16.9665C10.4605 16.9821 10.389 17.0206 10.3332 17.0771L7.30537 20.1002C6.85458 20.5505 6.24307 20.8036 5.60537 20.8038C4.96767 20.804 4.35602 20.5512 3.90497 20.1012C3.45391 19.6511 3.20041 19.0406 3.20022 18.4039C3.20004 17.7672 3.45318 17.1565 3.90397 16.7062L9.01997 11.6023C9.24286 11.3796 9.50752 11.2029 9.79882 11.0824C10.0901 10.9618 10.4024 10.8998 10.7177 10.8998C11.033 10.8998 11.3453 10.9618 11.6366 11.0824C11.9279 11.2029 12.1925 11.3796 12.4154 11.6023C12.7199 11.8888 13.1225 12.0483 13.5409 12.0483C13.9593 12.0483 14.3619 11.8888 14.6665 11.6023C14.8145 11.4549 14.932 11.2797 15.0122 11.0869C15.0923 10.8941 15.1336 10.6873 15.1336 10.4785C15.1336 10.2698 15.0923 10.063 15.0122 9.8702C14.932 9.67737 14.8145 9.50223 14.6665 9.35481Z" fill="#020059"/>
<path d="M22.3952 1.64046C21.8746 1.12033 21.2563 0.707726 20.5759 0.426218C19.8955 0.14471 19.1661 -0.000183105 18.4296 -0.000183105C17.6931 -0.000183105 16.9637 0.14471 16.2833 0.426218C15.6028 0.707726 14.9846 1.12033 14.4639 1.64046L10.2619 5.83188C10.2037 5.88771 10.164 5.95988 10.1479 6.03882C10.1318 6.11775 10.1402 6.1997 10.1719 6.27377C10.2036 6.34784 10.2571 6.41052 10.3254 6.45348C10.3936 6.49643 10.4733 6.51763 10.5539 6.51425H10.701C11.5792 6.51333 12.4492 6.68382 13.2619 7.01611C13.3351 7.04619 13.4156 7.05375 13.4931 7.03785C13.5707 7.02195 13.6417 6.9833 13.697 6.92685L16.715 3.91966C16.9383 3.6968 17.2034 3.52005 17.4952 3.3995C17.787 3.27894 18.0996 3.21694 18.4154 3.21703C18.7312 3.21712 19.0438 3.2793 19.3355 3.40003C19.6272 3.52076 19.8922 3.69767 20.1154 3.92065C20.3386 4.14363 20.5156 4.40833 20.6364 4.69962C20.7571 4.99091 20.8192 5.3031 20.8191 5.61835C20.819 5.93361 20.7568 6.24575 20.6358 6.53698C20.5149 6.8282 20.3377 7.09279 20.1144 7.31564L16.3574 11.0627L16.3256 11.0984L15.0123 12.4017C14.5616 12.8511 13.9506 13.1035 13.3136 13.1035C12.6766 13.1035 12.0656 12.8511 11.6149 12.4017C11.3099 12.1161 10.9075 11.9571 10.4894 11.9571C10.0712 11.9571 9.66879 12.1161 9.36384 12.4017C9.21457 12.5492 9.09607 12.7249 9.0152 12.9184C8.93432 13.112 8.89268 13.3197 8.89268 13.5294C8.89268 13.7391 8.93432 13.9468 9.0152 14.1403C9.09607 14.3339 9.21457 14.5095 9.36384 14.6571C9.82664 15.1228 10.3689 15.5023 10.9652 15.7778C11.0506 15.8175 11.1341 15.8492 11.2175 15.8849C11.301 15.9207 11.3904 15.9504 11.4738 15.9821C11.5573 16.0139 11.6467 16.0417 11.7301 16.0655L11.9665 16.1289C12.1275 16.1706 12.2884 16.2023 12.4513 16.2301C12.6488 16.2594 12.8478 16.278 13.0474 16.2856H13.3513L13.5937 16.2658C13.6811 16.2658 13.7745 16.242 13.8778 16.242H14.0149L14.2911 16.2023L14.4183 16.1785L14.6507 16.1289H14.7024C15.6872 15.8836 16.5864 15.3747 17.3031 14.6571L22.4012 9.56707C22.9227 9.04655 23.3363 8.42847 23.6183 7.74818C23.9003 7.0679 24.0452 6.33877 24.0446 5.60253C24.0441 4.86629 23.8981 4.13738 23.6151 3.45752C23.3321 2.77766 22.9175 2.16019 22.3952 1.64046Z" fill="#F92B4E"/>
<path d="M14.6684 14.6432C14.9547 14.3593 15.2085 14.0446 15.4254 13.7049C16.1154 12.6296 16.4164 11.3512 16.2788 10.0816C16.1411 8.81196 15.5729 7.62747 14.6684 6.72451L9.57032 1.63847C8.51455 0.609881 7.0954 0.0379712 5.62028 0.0466207C4.14517 0.0552703 2.73285 0.643783 1.68924 1.68468C0.645634 2.72559 0.0547687 4.13507 0.0446274 5.60783C0.034486 7.08059 0.605885 8.49805 1.63506 9.55318L5.84111 13.7525C5.89657 13.81 5.96811 13.8495 6.04638 13.8657C6.12464 13.882 6.206 13.8743 6.27982 13.8436C6.35364 13.813 6.41649 13.7608 6.46015 13.694C6.50382 13.6271 6.52627 13.5487 6.52457 13.4689V13.3082C6.52256 12.4312 6.69125 11.5621 7.02126 10.7493C7.05163 10.6764 7.05953 10.5962 7.04396 10.5188C7.02839 10.4414 6.99005 10.3704 6.93385 10.3149L3.90597 7.29382C3.47465 6.83951 3.23799 6.23504 3.24637 5.60913C3.25476 4.98321 3.50752 4.38528 3.95086 3.94266C4.3942 3.50003 4.99307 3.24766 5.61999 3.23929C6.2469 3.23092 6.85233 3.4672 7.30736 3.89783L12.4174 9.00569C12.6405 9.22823 12.8174 9.49246 12.9381 9.7833C13.0589 10.0741 13.121 10.3859 13.121 10.7007C13.121 11.0155 13.0589 11.3273 12.9381 11.6181C12.8174 11.909 12.6405 12.1732 12.4174 12.3957C12.1313 12.7002 11.9721 13.102 11.9721 13.5195C11.9721 13.9369 12.1313 14.3387 12.4174 14.6432C12.5651 14.791 12.7405 14.9083 12.9336 14.9884C13.1268 15.0684 13.3338 15.1096 13.5429 15.1096C13.752 15.1096 13.9591 15.0684 14.1522 14.9884C14.3454 14.9083 14.5208 14.791 14.6684 14.6432Z" fill="#020059"/>
<path d="M22.395 22.3597C22.916 21.8398 23.3293 21.2226 23.6112 20.5432C23.8932 19.8639 24.0383 19.1357 24.0383 18.4003C24.0383 17.665 23.8932 16.9368 23.6112 16.2574C23.3293 15.5781 22.916 14.9608 22.395 14.441L18.1989 10.2456C18.1431 10.1868 18.0707 10.1464 17.9913 10.13C17.9118 10.1135 17.8293 10.1217 17.7546 10.1534C17.68 10.1852 17.6169 10.2389 17.5738 10.3076C17.5307 10.3762 17.5096 10.4563 17.5135 10.5372V10.684C17.5151 11.5607 17.345 12.4293 17.0128 13.2409C16.9824 13.3138 16.9745 13.394 16.9901 13.4714C17.0057 13.5488 17.044 13.6198 17.1002 13.6753L20.1122 16.6885C20.3354 16.9114 20.5124 17.1761 20.6332 17.4674C20.7539 17.7587 20.816 18.0709 20.816 18.3862C20.8159 18.7014 20.7536 19.0136 20.6327 19.3048C20.5117 19.596 20.3346 19.8606 20.1112 20.0834C19.8879 20.3063 19.6228 20.4831 19.331 20.6036C19.0392 20.7242 18.7266 20.7862 18.4108 20.7861C18.095 20.786 17.7824 20.7238 17.4907 20.6031C17.199 20.4823 16.934 20.3054 16.7108 20.0825L12.9578 16.3314L12.914 16.2997L11.6087 14.9885C11.1586 14.5385 10.9058 13.9285 10.9058 13.2925C10.9058 12.6565 11.1586 12.0465 11.6087 11.5965C11.8948 11.292 12.054 10.8902 12.054 10.4727C12.054 10.0553 11.8948 9.65347 11.6087 9.34901C11.4609 9.19997 11.285 9.08166 11.0911 9.00092C10.8973 8.92017 10.6893 8.8786 10.4792 8.8786C10.2692 8.8786 10.0612 8.92017 9.86731 9.00092C9.67344 9.08166 9.49752 9.19997 9.34973 9.34901C8.88331 9.81107 8.50318 10.3525 8.22719 10.9478C8.18745 11.0331 8.15566 11.1164 8.1199 11.1997C8.08414 11.2831 8.05632 11.3723 8.02255 11.4556C7.98877 11.5389 7.96294 11.6282 7.9391 11.7115L7.87552 11.9476C7.83579 12.1082 7.804 12.2689 7.7742 12.4316C7.74638 12.6299 7.72651 12.8283 7.71857 13.0267V13.3302L7.74837 13.5722C7.74837 13.6594 7.77221 13.7527 7.77221 13.8558V13.9927L7.81393 14.2684L7.83778 14.3954L7.88546 14.6275V14.679C8.13206 15.662 8.64162 16.5595 9.35966 17.2756L14.4637 22.3577C15.5153 23.4079 16.9416 23.9981 18.429 23.9985C19.9163 23.9989 21.343 23.4094 22.395 22.3597Z" fill="#F92B4E"/>
</g>
<defs>
<clipPath id="clip0_7969_5993">
<rect width="24" height="24" fill="white"/>
</clipPath>
</defs>
</svg>
